# xmcd
#
# Track frame offsets: 
#        150
#        24444
#        46372
#        74637
#        91645
#        116082
#        136305
#        153295
#        180675
#        196770
#
# Disc length: 2920 seconds
#
# Revision: 0
# Processed by: cddbd v1.5.2PL0 Copyright (c) Steve Scherf et al.
# Submitted via: ExactAudioCopy v0.95a5
#
DISCID=7f0b660a
DTITLE=J. Blackfoot - At His Best
DYEAR=1999
DGENRE=Blues
TTITLE0=Better To Have And Not Need 
TTITLE1=Taxi 95'
TTITLE2=Now Is The Time
TTITLE3=Until Then
TTITLE4=Just One Lifetime
TTITLE5=May The Best Man Win
TTITLE6=Loveaholic
TTITLE7=I Stood On The Sidewalk
TTITLE8=Let Me Put You Up (For The Night)
TTITLE9=You're My Heartbeat
EXTD=
EXTT0=
EXTT1=
EXTT2=
EXTT3=
EXTT4=
EXTT5=
EXTT6=
EXTT7=
EXTT8=
EXTT9=
PLAYORDER=
